<svg width="120" height="24" viewBox="0 0 120 24" fill="none" xmlns="http://www.w3.org/2000/svg">
<path d="M10.4363 3.35577C11.0554 2.0271 12.9446 2.0271 13.5637 3.35577L15.0026 6.4436C15.254 6.98311 15.7658 7.35492 16.3566 7.4273L19.7379 7.84158C21.1929 8.01983 21.7767 9.81657 20.7044 10.816L18.2123 13.1387C17.7769 13.5445 17.5814 14.1461 17.6952 14.7303L18.346 18.0742C18.6261 19.513 17.0977 20.6235 15.8159 19.9125L12.8368 18.2601C12.3163 17.9714 11.6837 17.9714 11.1632 18.2601L8.18415 19.9125C6.90227 20.6235 5.37388 19.513 5.65395 18.0742L6.30485 14.7303C6.41857 14.1461 6.2231 13.5445 5.78768 13.1387L3.29562 10.816C2.22331 9.81657 2.8071 8.01983 4.26207 7.84158L7.64342 7.4273C8.23421 7.35492 8.74596 6.98311 8.99736 6.4436L10.4363 3.35577Z" fill="#FFB547"/>
<path d="M34.4363 3.35577C35.0554 2.0271 36.9446 2.0271 37.5637 3.35577L39.0026 6.4436C39.254 6.98311 39.7658 7.35492 40.3566 7.4273L43.7379 7.84158C45.1929 8.01983 45.7767 9.81657 44.7044 10.816L42.2123 13.1387C41.7769 13.5445 41.5814 14.1461 41.6952 14.7303L42.346 18.0742C42.6261 19.513 41.0977 20.6235 39.8159 19.9125L36.8368 18.2601C36.3163 17.9714 35.6837 17.9714 35.1632 18.2601L32.1841 19.9125C30.9023 20.6235 29.3739 19.513 29.654 18.0742L30.3048 14.7303C30.4186 14.1461 30.2231 13.5445 29.7877 13.1387L27.2956 10.816C26.2233 9.81657 26.8071 8.01983 28.2621 7.84158L31.6434 7.4273C32.2342 7.35492 32.746 6.98311 32.9974 6.4436L34.4363 3.35577Z" fill="#FFB547"/>
<path d="M58.4363 3.35577C59.0554 2.0271 60.9446 2.0271 61.5637 3.35577L63.0026 6.4436C63.254 6.98311 63.7658 7.35492 64.3566 7.4273L67.7379 7.84158C69.1929 8.01983 69.7767 9.81657 68.7044 10.816L66.2123 13.1387C65.7769 13.5445 65.5814 14.1461 65.6952 14.7303L66.346 18.0742C66.6261 19.513 65.0977 20.6235 63.8159 19.9125L60.8368 18.2601C60.3163 17.9714 59.6837 17.9714 59.1632 18.2601L56.1841 19.9125C54.9023 20.6235 53.3739 19.513 53.654 18.0742L54.3048 14.7303C54.4186 14.1461 54.2231 13.5445 53.7877 13.1387L51.2956 10.816C50.2233 9.81657 50.8071 8.01983 52.2621 7.84158L55.6434 7.4273C56.2342 7.35492 56.746 6.98311 56.9974 6.4436L58.4363 3.35577Z" fill="#FFB547"/>
<path d="M82.4363 3.35577C83.0554 2.0271 84.9446 2.0271 85.5637 3.35577L87.0026 6.4436C87.254 6.98311 87.7658 7.35492 88.3566 7.4273L91.7379 7.84158C93.1929 8.01983 93.7767 9.81657 92.7044 10.816L90.2123 13.1387C89.7769 13.5445 89.5814 14.1461 89.6952 14.7303L90.346 18.0742C90.6261 19.513 89.0977 20.6235 87.8159 19.9125L84.8368 18.2601C84.3163 17.9714 83.6837 17.9714 83.1632 18.2601L80.1841 19.9125C78.9023 20.6235 77.3739 19.513 77.654 18.0742L78.3048 14.7303C78.4186 14.1461 78.2231 13.5445 77.7877 13.1387L75.2956 10.816C74.2233 9.81657 74.8071 8.01983 76.2621 7.84158L79.6434 7.4273C80.2342 7.35492 80.746 6.98311 80.9974 6.4436L82.4363 3.35577Z" fill="#FFB547"/>
<path d="M106.889 3.56696C107.329 2.62337 108.671 2.62337 109.111 3.56696L110.549 6.65479C110.874 7.35066 111.534 7.83023 112.296 7.92359L115.677 8.33786C116.71 8.46446 117.125 9.74046 116.363 10.4502L113.871 12.7729C113.31 13.2963 113.058 14.0723 113.204 14.8259L113.855 18.1697C114.054 19.1915 112.969 19.9802 112.058 19.4752L109.079 17.8229C108.408 17.4505 107.592 17.4505 106.921 17.8229L103.942 19.4752C103.031 19.9802 101.946 19.1915 102.145 18.1697L102.796 14.8258C102.942 14.0723 102.69 13.2963 102.129 12.7729L99.6365 10.4502C98.875 9.74046 99.2896 8.46446 100.323 8.33786L103.704 7.92359C104.466 7.83023 105.126 7.35066 105.451 6.65479L106.889 3.56696Z" fill="url(#paint0_linear_1153_216)" stroke="#FFB547"/>
<defs>
<linearGradient id="paint0_linear_1153_216" x1="107.119" y1="11.8505" x2="115.878" y2="11.8505" gradientUnits="userSpaceOnUse">
<stop offset="0.394791" stop-color="#FFB547"/>
<stop offset="0.394891" stop-color="#FFB547" stop-opacity="0"/>
</linearGradient>
</defs>
</svg>
